HIERARCHY
ROOT Hips
{
	OFFSET -19.144548 -40.654278 87.740608
	CHANNELS 6 Xposition Yposition Zposition Zrotation Yrotation Xrotation
	JOINT Spine
	{
		OFFSET 0.000000 2.080109 8.814247
		CHANNELS 6 Xposition Yposition Zposition Zrotation Yrotation Xrotation
		JOINT Spine1
		{
			OFFSET 0.000000 0.000000 8.844139
			CHANNELS 6 Xposition Yposition Zposition Zrotation Yrotation Xrotation
			JOINT Spine2
			{
				OFFSET 0.000000 0.000000 11.682266
				CHANNELS 6 Xposition Yposition Zposition Zrotation Yrotation Xrotation
				JOINT Spine3
				{
					OFFSET 0.000000 0.000004 11.746696
					CHANNELS 6 Xposition Yposition Zposition Zrotation Yrotation Xrotation
					JOINT Neck
					{
						OFFSET 0.000000 0.000000 17.658264
						CHANNELS 6 Xposition Yposition Zposition Zrotation Yrotation Xrotation
						JOINT Neck1
						{
							OFFSET 0.000000 0.000000 5.101517
							CHANNELS 6 Xposition Yposition Zposition Zrotation Yrotation Xrotation
							JOINT Head
							{
								OFFSET 0.000000 0.000000 5.101517
								CHANNELS 6 Xposition Yposition Zposition Zrotation Yrotation Xrotation
								JOINT HeadEnd
								{
									OFFSET 0.000000 0.000000 11.655090
									CHANNELS 6 Xposition Yposition Zposition Zrotation Yrotation Xrotation
									End Site
									{
										OFFSET 0.000000 0.000000 0.100006
									}
								}
							}
						}
					}
					JOINT RightShoulder
					{
						OFFSET -2.625389 0.000000 11.175217
						CHANNELS 6 Xposition Yposition Zposition Zrotation Yrotation Xrotation
						JOINT RightArm
						{
							OFFSET 0.000000 0.000000 10.434723
							CHANNELS 6 Xposition Yposition Zposition Zrotation Yrotation Xrotation
							JOINT RightForeArm
							{
								OFFSET 0.000000 0.000004 29.628418
								CHANNELS 6 Xposition Yposition Zposition Zrotation Yrotation Xrotation
								JOINT RightHand
								{
									OFFSET 0.000000 0.000000 22.857605
									CHANNELS 6 Xposition Yposition Zposition Zrotation Yrotation Xrotation
									JOINT RightHandThumb1
									{
										OFFSET -2.867323 -2.944290 3.959564
										CHANNELS 6 Xposition Yposition Zposition Zrotation Yrotation Xrotation
										JOINT RightHandThumb2
										{
											OFFSET 0.000000 0.000000 3.350403
											CHANNELS 6 Xposition Yposition Zposition Zrotation Yrotation Xrotation
											JOINT RightHandThumb3
											{
												OFFSET 0.000000 0.000000 3.756516
												CHANNELS 6 Xposition Yposition Zposition Zrotation Yrotation Xrotation
												JOINT RightHandThumb4
												{
													OFFSET 0.000000 0.000000 3.147339
													CHANNELS 6 Xposition Yposition Zposition Zrotation Yrotation Xrotation
													End Site
													{
														OFFSET 0.000000 0.000000 0.100006
													}
												}
											}
										}
									}
									JOINT RightHandIndex1
									{
										OFFSET -0.086752 -2.345280 10.030899
										CHANNELS 6 Xposition Yposition Zposition Zrotation Yrotation Xrotation
										JOINT RightHandIndex2
										{
											OFFSET 0.000000 0.000000 4.061096
											CHANNELS 6 Xposition Yposition Zposition Zrotation Yrotation Xrotation
											JOINT RightHandIndex3
											{
												OFFSET 0.000000 0.000000 3.248871
												CHANNELS 6 Xposition Yposition Zposition Zrotation Yrotation Xrotation
												JOINT RightHandIndex4
												{
													OFFSET 0.000000 0.000000 2.639709
													CHANNELS 6 Xposition Yposition Zposition Zrotation Yrotation Xrotation
													End Site
													{
														OFFSET 0.000000 0.000000 0.100006
													}
												}
											}
										}
									}
									JOINT RightHandMiddle1
									{
										OFFSET 0.104101 -0.006767 9.502945
										CHANNELS 6 Xposition Yposition Zposition Zrotation Yrotation Xrotation
										JOINT RightHandMiddle2
										{
											OFFSET 0.000000 0.000000 4.568726
											CHANNELS 6 Xposition Yposition Zposition Zrotation Yrotation Xrotation
											JOINT RightHandMiddle3
											{
												OFFSET 0.000000 0.000000 3.654984
												CHANNELS 6 Xposition Yposition Zposition Zrotation Yrotation Xrotation
												JOINT RightHandMiddle4
												{
													OFFSET 0.000000 0.000000 2.741241
													CHANNELS 6 Xposition Yposition Zposition Zrotation Yrotation Xrotation
													End Site
													{
														OFFSET 0.000000 0.000000 0.100006
													}
												}
											}
										}
									}
									JOINT RightHandRing1
									{
										OFFSET 0.086752 2.267441 8.921707
										CHANNELS 6 Xposition Yposition Zposition Zrotation Yrotation Xrotation
										JOINT RightHandRing2
										{
											OFFSET 0.000000 0.000000 4.061096
											CHANNELS 6 Xposition Yposition Zposition Zrotation Yrotation Xrotation
											JOINT RightHandRing3
											{
												OFFSET 0.000000 0.000000 3.654984
												CHANNELS 6 Xposition Yposition Zposition Zrotation Yrotation Xrotation
												JOINT RightHandRing4
												{
													OFFSET 0.000000 0.000000 2.741241
													CHANNELS 6 Xposition Yposition Zposition Zrotation Yrotation Xrotation
													End Site
													{
														OFFSET 0.000000 0.000000 0.100006
													}
												}
											}
										}
									}
									JOINT RightHandPinky1
									{
										OFFSET -0.173504 4.467197 7.976990
										CHANNELS 6 Xposition Yposition Zposition Zrotation Yrotation Xrotation
										JOINT RightHandPinky2
										{
											OFFSET 0.000000 0.000000 3.350403
											CHANNELS 6 Xposition Yposition Zposition Zrotation Yrotation Xrotation
											JOINT RightHandPinky3
											{
												OFFSET 0.000000 0.000000 2.842758
												CHANNELS 6 Xposition Yposition Zposition Zrotation Yrotation Xrotation
												JOINT RightHandPinky4
												{
													OFFSET 0.000000 0.000000 2.639709
													CHANNELS 6 Xposition Yposition Zposition Zrotation Yrotation Xrotation
													End Site
													{
														OFFSET 0.000000 0.000000 0.100006
													}
												}
											}
										}
									}
									JOINT RightForeArmEnd
									{
										OFFSET 0.000000 0.000000 0.000000
										CHANNELS 6 Xposition Yposition Zposition Zrotation Yrotation Xrotation
										End Site
										{
											OFFSET 0.000000 0.000000 0.100006
										}
									}
								}
								JOINT RightArmEnd
								{
									OFFSET 0.000000 0.000000 0.000000
									CHANNELS 6 Xposition Yposition Zposition Zrotation Yrotation Xrotation
									End Site
									{
										OFFSET 0.000000 0.000000 0.100006
									}
								}
							}
						}
					}
					JOINT LeftShoulder
					{
						OFFSET 2.625389 0.000000 11.175217
						CHANNELS 6 Xposition Yposition Zposition Zrotation Yrotation Xrotation
						JOINT LeftArm
						{
							OFFSET 0.000000 0.000000 10.813629
							CHANNELS 6 Xposition Yposition Zposition Zrotation Yrotation Xrotation
							JOINT LeftForeArm
							{
								OFFSET 0.000000 0.000004 28.724777
								CHANNELS 6 Xposition Yposition Zposition Zrotation Yrotation Xrotation
								JOINT LeftHand
								{
									OFFSET 0.644384 0.328873 25.716171
									CHANNELS 6 Xposition Yposition Zposition Zrotation Yrotation Xrotation
									JOINT LeftHandThumb1
									{
										OFFSET 2.867323 -2.944290 3.959564
										CHANNELS 6 Xposition Yposition Zposition Zrotation Yrotation Xrotation
										JOINT LeftHandThumb2
										{
											OFFSET 0.000000 0.000000 3.350403
											CHANNELS 6 Xposition Yposition Zposition Zrotation Yrotation Xrotation
											JOINT LeftHandThumb3
											{
												OFFSET 0.000000 0.000000 3.756516
												CHANNELS 6 Xposition Yposition Zposition Zrotation Yrotation Xrotation
												JOINT LeftHandThumb4
												{
													OFFSET 0.000000 0.000000 3.100006
													CHANNELS 6 Xposition Yposition Zposition Zrotation Yrotation Xrotation
													End Site
													{
														OFFSET 0.000000 0.000000 0.100006
													}
												}
											}
										}
									}
									JOINT LeftHandIndex1
									{
										OFFSET 0.086752 -2.345280 10.030899
										CHANNELS 6 Xposition Yposition Zposition Zrotation Yrotation Xrotation
										JOINT LeftHandIndex2
										{
											OFFSET 0.000000 0.000000 4.061096
											CHANNELS 6 Xposition Yposition Zposition Zrotation Yrotation Xrotation
											JOINT LeftHandIndex3
											{
												OFFSET 0.000000 0.000000 3.248871
												CHANNELS 6 Xposition Yposition Zposition Zrotation Yrotation Xrotation
												JOINT LeftHandIndex4
												{
													OFFSET 0.000000 0.000000 2.639709
													CHANNELS 6 Xposition Yposition Zposition Zrotation Yrotation Xrotation
													End Site
													{
														OFFSET 0.000000 0.000000 0.100006
													}
												}
											}
										}
									}
									JOINT LeftHandMiddle1
									{
										OFFSET -0.104102 -0.006767 9.502945
										CHANNELS 6 Xposition Yposition Zposition Zrotation Yrotation Xrotation
										JOINT LeftHandMiddle2
										{
											OFFSET 0.000000 0.000000 4.568726
											CHANNELS 6 Xposition Yposition Zposition Zrotation Yrotation Xrotation
											JOINT LeftHandMiddle3
											{
												OFFSET 0.000000 0.000000 3.654984
												CHANNELS 6 Xposition Yposition Zposition Zrotation Yrotation Xrotation
												JOINT LeftHandMiddle4
												{
													OFFSET 0.000000 0.000000 2.741241
													CHANNELS 6 Xposition Yposition Zposition Zrotation Yrotation Xrotation
													End Site
													{
														OFFSET 0.000000 0.000000 0.100006
													}
												}
											}
										}
									}
									JOINT LeftHandRing1
									{
										OFFSET -0.086752 2.267441 8.921707
										CHANNELS 6 Xposition Yposition Zposition Zrotation Yrotation Xrotation
										JOINT LeftHandRing2
										{
											OFFSET 0.000000 0.000000 4.061096
											CHANNELS 6 Xposition Yposition Zposition Zrotation Yrotation Xrotation
											JOINT LeftHandRing3
											{
												OFFSET 0.000000 0.000000 3.654984
												CHANNELS 6 Xposition Yposition Zposition Zrotation Yrotation Xrotation
												JOINT LeftHandRing4
												{
													OFFSET 0.000000 0.000000 2.741241
													CHANNELS 6 Xposition Yposition Zposition Zrotation Yrotation Xrotation
													End Site
													{
														OFFSET 0.000000 0.000000 0.100006
													}
												}
											}
										}
									}
									JOINT LeftHandPinky1
									{
										OFFSET 0.173504 4.467197 7.976990
										CHANNELS 6 Xposition Yposition Zposition Zrotation Yrotation Xrotation
										JOINT LeftHandPinky2
										{
											OFFSET 0.000000 0.000000 3.350403
											CHANNELS 6 Xposition Yposition Zposition Zrotation Yrotation Xrotation
											JOINT LeftHandPinky3
											{
												OFFSET 0.000000 0.000000 2.842758
												CHANNELS 6 Xposition Yposition Zposition Zrotation Yrotation Xrotation
												JOINT LeftHandPinky4
												{
													OFFSET 0.000000 0.000000 2.639709
													CHANNELS 6 Xposition Yposition Zposition Zrotation Yrotation Xrotation
													End Site
													{
														OFFSET 0.000000 0.000000 0.100006
													}
												}
											}
										}
									}
									JOINT LeftForeArmEnd
									{
										OFFSET 0.000000 0.000000 0.000000
										CHANNELS 6 Xposition Yposition Zposition Zrotation Yrotation Xrotation
										End Site
										{
											OFFSET 0.000000 0.000000 0.100006
										}
									}
								}
								JOINT LeftArmEnd
								{
									OFFSET 0.000000 0.000000 0.000000
									CHANNELS 6 Xposition Yposition Zposition Zrotation Yrotation Xrotation
									End Site
									{
										OFFSET 0.000000 0.000000 0.100006
									}
								}
							}
						}
					}
				}
			}
		}
	}
	JOINT RightUpLeg
	{
		OFFSET -11.289942 0.000000 0.000000
		CHANNELS 6 Xposition Yposition Zposition Zrotation Yrotation Xrotation
		JOINT RightLeg
		{
			OFFSET 0.000000 -0.000004 -38.200321
			CHANNELS 6 Xposition Yposition Zposition Zrotation Yrotation Xrotation
			JOINT RightFoot
			{
				OFFSET 0.000000 -0.000004 -39.900856
				CHANNELS 6 Xposition Yposition Zposition Zrotation Yrotation Xrotation
				JOINT RightToeBase
				{
					OFFSET 0.000000 -15.261639 0.000001
					CHANNELS 6 Xposition Yposition Zposition Zrotation Yrotation Xrotation
					JOINT RightToeBaseEnd
					{
						OFFSET 0.000000 -7.370708 0.000001
						CHANNELS 6 Xposition Yposition Zposition Zrotation Yrotation Xrotation
						End Site
						{
							OFFSET 0.000000 0.000000 0.100000
						}
					}
				}
				JOINT RightLegEnd
				{
					OFFSET 0.000000 0.000000 0.000000
					CHANNELS 6 Xposition Yposition Zposition Zrotation Yrotation Xrotation
					End Site
					{
						OFFSET 0.000000 0.000000 0.100000
					}
				}
			}
			JOINT RightUpLegEnd
			{
				OFFSET 0.000000 0.000000 0.000000
				CHANNELS 6 Xposition Yposition Zposition Zrotation Yrotation Xrotation
				End Site
				{
					OFFSET 0.000000 0.000000 0.099998
				}
			}
		}
	}
	JOINT LeftUpLeg
	{
		OFFSET 11.315661 0.000000 0.000000
		CHANNELS 6 Xposition Yposition Zposition Zrotation Yrotation Xrotation
		JOINT LeftLeg
		{
			OFFSET 0.000000 -0.000004 -38.200321
			CHANNELS 6 Xposition Yposition Zposition Zrotation Yrotation Xrotation
			JOINT LeftFoot
			{
				OFFSET 0.000000 -0.000004 -39.900856
				CHANNELS 6 Xposition Yposition Zposition Zrotation Yrotation Xrotation
				JOINT LeftToeBase
				{
					OFFSET 0.000000 -15.261639 0.000001
					CHANNELS 6 Xposition Yposition Zposition Zrotation Yrotation Xrotation
					JOINT LeftToeBaseEnd
					{
						OFFSET 0.000000 -7.539997 0.000001
						CHANNELS 6 Xposition Yposition Zposition Zrotation Yrotation Xrotation
						End Site
						{
							OFFSET 0.000000 0.000000 0.100000
						}
					}
				}
				JOINT LeftLegEnd
				{
					OFFSET 0.000000 0.000000 0.000000
					CHANNELS 6 Xposition Yposition Zposition Zrotation Yrotation Xrotation
					End Site
					{
						OFFSET 0.000000 0.000000 0.100000
					}
				}
			}
			JOINT LeftUpLegEnd
			{
				OFFSET 0.000000 0.000000 0.000000
				CHANNELS 6 Xposition Yposition Zposition Zrotation Yrotation Xrotation
				End Site
				{
					OFFSET 0.000000 0.000000 0.099998
				}
			}
		}
	}
}
MOTION
Frames: 2
Frame Time: 0.016667
11.672527 -22.530573 86.869720 6.295725 2.246728 -11.946224 -0.000001 2.080108 8.814242 0.776004 1.055009 7.524890 0.000002 0.000000 8.844148 0.060026 -0.310775 5.215183 -0.000000 0.000001 11.682266 -0.265240 -4.063613 3.172718 -0.000003 0.000003 11.746710 0.740803 -1.270144 -1.555768 -0.000009 0.000001 17.658255 -5.121617 -19.624494 1.435186 0.000006 0.000009 5.101520 0.665318 3.888388 -14.675003 -0.000001 0.000003 5.101531 3.805177 -1.225874 -12.362448 -0.000001 0.000005 11.655107 -0.000001 0.000001 -0.000001 -2.625391 -0.000002 11.175210 10.162854 -83.295400 -0.345709 -0.000017 -0.000002 10.434700 69.688523 -23.453948 -45.199890 0.000000 -0.000002 29.628428 11.974186 -0.812564 123.920354 0.000003 0.000003 22.857620 12.914599 70.397455 31.440522 -2.867313 -2.944315 3.959580 32.047828 -14.886706 55.266124 -0.000000 0.000013 3.350417 -7.472736 5.843841 -13.978214 0.000001 -0.000013 3.756525 -5.035405 4.254694 -9.617789 0.000012 -0.000014 3.147339 0.000001 0.000001 -0.000000 -0.086747 -2.345274 10.030905 -7.924155 4.079510 8.308094 -0.000027 -0.000004 4.061123 0.544926 0.000002 0.000006 -0.000005 -0.000001 3.248884 0.040510 0.000002 -0.000423 -0.000015 -0.000005 2.639694 -0.000000 -0.000001 -0.000000 0.104092 -0.006769 9.502966 -2.943749 3.363018 3.472566 -0.000013 -0.000000 4.568735 0.527992 -0.000150 -0.014102 -0.000001 -0.000000 3.654970 0.039452 0.000004 -0.011467 -0.000007 0.000003 2.741241 0.000000 -0.000001 0.000000 0.086740 2.267440 8.921719 5.403533 5.378161 -3.770199 -0.000001 -0.000001 4.061094 -1.059538 -0.000137 0.006399 -0.000004 0.000005 3.654992 -0.058166 0.000001 0.005934 0.000001 -0.000006 2.741243 0.000000 0.000001 -0.000001 -0.173515 4.467203 7.977005 14.345293 10.352196 -9.664808 -0.000006 -0.000009 3.350407 -2.062158 -0.000134 0.000009 0.000014 -0.000002 2.842778 -0.048963 0.000139 -0.000098 -0.000005 0.000003 2.639694 -0.000000 0.000000 -0.000000 0.000001 -0.000001 -0.000000 0.000000 -0.000002 -0.000000 -0.000000 0.000001 0.000000 0.000000 0.000000 -0.000000 2.625372 -0.000000 11.175219 -9.569321 80.085409 -0.800517 -0.000037 -0.000001 10.813628 -56.761034 33.202123 -38.353640 0.000007 0.000012 28.724764 -21.196570 3.729272 109.145262 0.644385 0.328876 25.716156 -9.046689 -43.639373 21.118081 2.867332 -2.944289 3.959584 -33.202837 11.604898 61.041162 0.000002 -0.000008 3.350413 0.590012 -0.577997 -1.180933 -0.000005 -0.000005 3.756506 0.408494 -0.402664 -0.821306 0.000002 0.000002 3.100007 -0.000001 0.000000 -0.000001 0.086741 -2.345273 10.030924 -15.758052 -29.390680 16.294615 0.000013 0.000008 4.061096 0.544094 0.000023 -0.000012 0.000005 0.000008 3.248880 0.041716 0.000005 0.004577 0.000015 0.000000 2.639710 0.000000 0.000002 0.000000 -0.104108 -0.006757 9.502954 -9.618558 -28.687802 11.285457 -0.000005 -0.000000 4.568720 0.578744 0.048470 0.000326 -0.000014 0.000000 3.654967 0.067462 -0.026926 0.001691 -0.000017 -0.000004 2.741226 -0.000001 -0.000001 -0.000001 -0.086742 2.267442 8.921735 -0.056358 -27.104479 4.790745 -0.000020 -0.000005 4.061082 -1.026261 0.000000 -0.000026 -0.000008 -0.000001 3.654984 -0.020993 0.000002 -0.000826 -0.000003 -0.000005 2.741227 0.000000 0.000002 -0.000001 0.173508 4.467197 7.977022 9.805688 -24.076810 -0.244152 0.000020 0.000009 3.350415 -2.004375 0.027948 -0.001058 -0.000002 -0.000008 2.842756 -0.004277 -0.015072 0.014947 0.000008 0.000002 2.639710 0.000000 0.000001 0.000000 0.000000 0.000004 -0.000015 0.000000 0.000000 -0.000000 -0.000005 0.000004 0.000015 -0.000001 0.000000 0.000001 -11.289944 -0.000010 -0.000004 -4.673509 -2.027611 14.410938 -0.000001 -0.000011 -38.200321 -0.663373 0.161586 13.067791 -0.000002 -0.000002 -39.900856 -8.341018 5.624351 13.323150 0.000001 -15.261640 0.000004 -1.041124 0.283112 -29.166035 -0.000000 -7.370712 0.000002 -0.000000 -0.000001 0.000000 -0.000000 -0.000000 -0.000000 0.000000 0.000000 -0.000001 -0.000000 0.000000 -0.000000 -0.000000 0.000000 0.000000 11.315659 -0.000009 0.000004 3.446469 -3.998752 13.076227 -0.000003 -0.000009 -38.200321 0.705072 -0.195861 15.699642 0.000002 -0.000002 -39.900856 1.041336 -4.874300 9.081729 0.000002 -15.261641 0.000000 0.738597 -0.360413 -27.153677 -0.000001 -7.539993 0.000001 -0.000001 -0.000000 -0.000000 0.000003 -0.000004 -0.000000 0.000000 0.000000 0.000002 0.000001 -0.000001 0.000010 0.000000 -0.000000 0.000002 
11.689497 -22.587473 86.857376 6.489203 2.224787 -12.010520 0.000001 2.080113 8.814246 0.795041 1.093609 7.518159 -0.000000 0.000000 8.844136 0.071594 -0.272184 5.186041 0.000001 0.000000 11.682271 -0.295430 -4.088018 3.190399 -0.000000 0.000004 11.746696 0.739117 -1.273430 -1.560011 0.000000 -0.000000 17.658258 -5.116440 -19.575165 1.356118 0.000002 0.000002 5.101511 0.677419 3.899997 -14.791453 -0.000001 0.000003 5.101542 3.815599 -1.230804 -12.300134 -0.000007 0.000007 11.655074 0.000000 0.000002 0.000002 -2.625384 0.000002 11.175200 10.201483 -83.344495 -0.355995 -0.000031 0.000001 10.434723 70.048125 -23.446337 -45.182477 0.000004 -0.000010 29.628424 11.964786 -0.808665 124.100384 0.000010 0.000005 22.857586 13.332671 70.378187 31.731423 -2.867311 -2.944297 3.959557 32.047838 -14.886681 55.266110 0.000019 -0.000002 3.350430 -7.472718 5.843842 -13.978190 -0.000007 0.000007 3.756529 -5.035406 4.254688 -9.617820 -0.000010 0.000010 3.147338 -0.000002 -0.000000 0.000001 -0.086732 -2.345275 10.030910 -7.893665 4.253617 7.932232 -0.000003 -0.000004 4.061110 0.544672 0.000002 0.000002 0.000006 -0.000003 3.248886 0.040256 0.000001 -0.000490 0.000004 -0.000005 2.639724 -0.000000 0.000000 0.000000 0.104120 -0.006765 9.502937 -2.911224 3.541269 3.234561 0.000012 -0.000001 4.568758 0.527815 -0.000108 -0.012799 0.000005 0.000001 3.654969 0.037996 0.000006 -0.010353 0.000008 0.000001 2.741225 -0.000000 -0.000003 -0.000000 0.086770 2.267445 8.921711 5.425177 5.497614 -3.789306 -0.000004 -0.000002 4.061124 -1.057154 -0.000001 0.005952 -0.000021 0.000002 3.654985 -0.055882 0.000006 0.005492 0.000006 -0.000001 2.741258 -0.000000 -0.000000 -0.000002 -0.173491 4.467203 7.976990 14.345974 10.391073 -9.480576 0.000003 0.000007 3.350426 -2.059218 -0.136270 0.004900 -0.000006 -0.000003 2.842781 -0.046445 0.073693 -0.000150 0.000007 -0.000001 2.639710 0.000000 -0.000001 -0.000001 0.000012 0.000002 0.000016 0.000000 0.000002 0.000000 -0.000002 -0.000000 -0.000001 0.000001 -0.000001 0.000001 2.625398 -0.000002 11.175199 -9.607398 80.051456 -0.803938 -0.000014 -0.000004 10.813624 -57.059708 33.228379 -38.398121 0.000003 0.000007 28.724800 -22.033195 1.004287 109.229212 0.644379 0.328883 25.716167 -11.971714 -43.419612 20.906128 2.867315 -2.944304 3.959543 -33.202851 11.604888 61.041824 -0.000000 -0.000012 3.350415 0.590028 -0.577988 -1.182228 -0.000002 -0.000013 3.756502 0.408453 -0.402668 -0.820686 -0.000005 -0.000000 3.100006 -0.000001 0.000001 0.000001 0.086725 -2.345291 10.030893 -15.861712 -29.692588 16.281800 0.000007 -0.000001 4.061103 0.542292 -0.000004 -0.000011 -0.000022 0.000015 3.248869 0.040008 -0.000001 0.004418 0.000010 0.000001 2.639709 -0.000000 -0.000001 0.000000 -0.104119 -0.006773 9.502926 -9.692634 -28.957700 11.192379 -0.000015 0.000008 4.568729 0.575761 0.000071 -0.000158 0.000011 0.000002 3.655005 0.064936 -0.000013 0.001632 -0.000023 0.000006 2.741242 0.000001 0.000003 0.000000 -0.086763 2.267432 8.921695 -0.102501 -27.365658 4.574895 0.000007 -0.000007 4.061108 -1.024882 0.037626 -0.000700 0.000006 0.000000 3.654968 -0.019913 -0.019800 -0.000716 -0.000001 0.000001 2.741244 -0.000000 0.000005 -0.000002 0.173492 4.467189 7.976977 9.784240 -24.278811 -0.566523 -0.000005 0.000000 3.350410 -2.003984 0.146624 -0.005208 -0.000015 0.000004 2.842766 -0.003891 -0.079389 0.013918 0.000011 0.000001 2.639724 -0.000000 -0.000001 -0.000000 -0.000011 -0.000009 -0.000015 0.000001 0.000002 -0.000000 -0.000003 0.000003 0.000000 -0.000001 0.000000 -0.000001 -11.289944 -0.000005 0.000002 -4.769549 -1.981598 14.562880 -0.000000 -0.000008 -38.200302 -0.664578 0.161406 13.036260 -0.000000 0.000000 -39.900856 -8.431840 5.593335 13.254524 0.000000 -15.261641 0.000005 -1.037440 0.284693 -29.128950 -0.000001 -7.370712 0.000001 -0.000001 0.000000 0.000000 -0.000000 0.000000 -0.000000 0.000000 0.000001 -0.000002 -0.000000 0.000003 0.000014 -0.000000 -0.000000 0.000002 11.315659 -0.000013 -0.000005 3.327009 -3.960099 13.202336 0.000002 -0.000008 -38.200317 0.703801 -0.195910 15.628870 -0.000003 -0.000004 -39.900856 0.976327 -4.890328 9.056366 0.000002 -15.261642 0.000006 0.737769 -0.360913 -27.114277 -0.000001 -7.539993 0.000001 -0.000000 -0.000000 -0.000000 0.000001 0.000000 0.000003 -0.000000 -0.000000 0.000000 -0.000004 -0.000001 0.000004 -0.000000 -0.000000 -0.000000 
